<svg viewBox="0 0 2333 874" fill="none" xmlns="http://www.w3.org/2000/svg">
<path fill-rule="evenodd" clip-rule="evenodd" d="M952.069 736.445V146.661H1504.97V262.784H1099.76V736.445H952.069Z" fill="#F6C212"/>
<path d="M453.188 -0.000183105V424.792C453.188 550.226 413.118 632.439 300.351 632.439C187.582 632.439 147.547 550.226 147.547 424.792V-0.000183105H0V470.116C0 667.203 111.688 748.411 300.351 748.411C488.999 748.411 600.69 667.203 600.69 470.116V115.936H771.207V735.748H918.755V115.936H1505.87V-0.000183105H453.188Z" fill="currentColor"/>
<path d="M1132.25 736.445V297.478H1504.97V413.53H1271.05V736.445H1132.25Z" fill="currentColor"/>
<path d="M1568 735V297H1709.88C1763.65 297 1798.69 299.191 1815.02 303.573C1840.11 310.146 1861.12 324.487 1878.05 346.596C1894.97 368.506 1903.44 396.889 1903.44 431.746C1903.44 458.636 1898.56 481.243 1888.8 499.568C1879.04 517.892 1866.6 532.333 1851.46 542.889C1836.53 553.247 1821.29 560.119 1805.76 563.505C1784.65 567.688 1754.09 569.779 1714.06 569.779H1656.41V735H1568ZM1656.41 371.095V495.385H1704.8C1739.65 495.385 1762.95 493.094 1774.7 488.513C1786.45 483.932 1795.61 476.761 1802.18 467.001C1808.95 457.241 1812.33 445.888 1812.33 432.941C1812.33 417.007 1807.65 403.861 1798.29 393.503C1788.94 383.146 1777.09 376.673 1762.75 374.083C1752.2 372.091 1730.99 371.095 1699.13 371.095H1656.41Z" fill="currentColor"/>
<path d="M1934.32 735V297H2120.41C2167.2 297 2201.15 300.984 2222.26 308.951C2243.57 316.719 2260.59 330.662 2273.34 350.779C2286.08 370.896 2292.46 393.902 2292.46 419.795C2292.46 452.66 2282.8 479.849 2263.48 501.36C2244.17 522.673 2215.29 536.117 2176.86 541.694C2195.98 552.849 2211.71 565.098 2224.05 578.443C2236.6 591.789 2253.43 615.491 2274.53 649.551L2328 735H2222.26L2158.34 639.692C2135.64 605.632 2120.11 584.22 2111.74 575.456C2103.38 566.492 2094.52 560.417 2085.16 557.231C2075.8 553.844 2060.97 552.151 2040.65 552.151H2022.73V735H1934.32ZM2022.73 482.239H2088.15C2130.56 482.239 2157.05 480.446 2167.6 476.861C2178.15 473.276 2186.42 467.101 2192.39 458.337C2198.37 449.573 2201.35 438.618 2201.35 425.472C2201.35 410.733 2197.37 398.881 2189.4 389.918C2181.64 380.756 2170.59 374.98 2156.25 372.589C2149.08 371.593 2127.57 371.095 2091.73 371.095H2022.73V482.239Z" fill="currentColor"/>
</svg>
